{
  "accessors": [
    {
      "bufferView": 2,
      "componentType": 5126,
      "count": 18787,
      "max": [
        9.283927917480469,
        -0.24702432751655579,
        6.4484968185424805
      ],
      "min": [
        -9.102620124816895,
        -22.82986068725586,
        -9.387364387512207
      ],
      "type": "VEC3"
    },
    {
      "bufferView": 2,
      "byteOffset": 225444,
      "componentType": 5126,
      "count": 18787,
      "max": [
        0.9999992847442627,
        0.9999997615814209,
        0.9999933242797852
      ],
      "min": [
        -0.9999951720237732,
        -0.9999999403953552,
        -0.9999983906745911
      ],
      "type": "VEC3"
    },
    {
      "bufferView": 1,
      "componentType": 5126,
      "count": 18787,
      "max": [
        0.9996119737625122,
        0.9997559785842896
      ],
      "min": [
        0.00024399999529123306,
        0.00040099999750964344
      ],
      "type": "VEC2"
    },
    {
      "bufferView": 0,
      "componentType": 5125,
      "count": 86745,
      "type": "SCALAR"
    },
    {
      "bufferView": 2,
      "byteOffset": 450888,
      "componentType": 5126,
      "count": 10956,
      "max": [
        9.283927917480469,
        -0.2807196080684662,
        6.503798007965088
      ],
      "min": [
        -9.096187591552734,
        -22.54262924194336,
        -9.311223030090332
      ],
      "type": "VEC3"
    },
    {
      "bufferView": 2,
      "byteOffset": 582360,
      "componentType": 5126,
      "count": 10956,
      "max": [
        0.9999899864196777,
        0.9999997019767761,
        0.9999997615814209
      ],
      "min": [
        -0.9999781250953674,
        -0.9999983906745911,
        -0.9999958872795105
      ],
      "type": "VEC3"
    },
    {
      "bufferView": 1,
      "byteOffset": 150296,
      "componentType": 5126,
      "count": 10956,
      "max": [
        0.999468982219696,
        1.9973139762878418
      ],
      "min": [
        0.00024399999529123306,
        1.0005509853363037
      ],
      "type": "VEC2"
    },
    {
      "bufferView": 0,
      "byteOffset": 346980,
      "componentType": 5125,
      "count": 55980,
      "type": "SCALAR"
    },
    {
      "bufferView": 2,
      "byteOffset": 713832,
      "componentType": 5126,
      "count": 10953,
      "max": [
        9.344797134399414,
        -0.24736689031124115,
        6.249907493591309
      ],
      "min": [
        -9.102620124816895,
        -22.7513484954834,
        -9.311223030090332
      ],
      "type": "VEC3"
    },
    {
      "bufferView": 2,
      "byteOffset": 845268,
      "componentType": 5126,
      "count": 10953,
      "max": [
        0.9999985098838806,
        0.9999998211860657,
        0.999994695186615
      ],
      "min": [
        -0.9999943971633911,
        -0.9999998807907104,
        -0.9999919533729553
      ],
      "type": "VEC3"
    },
    {
      "bufferView": 1,
      "byteOffset": 237944,
      "componentType": 5126,
      "count": 10953,
      "max": [
        1.9973750114440918,
        0.9997559785842896
      ],
      "min": [
        1.0002440214157104,
        0.0003819999983534217
      ],
      "type": "VEC2"
    },
    {
      "bufferView": 0,
      "byteOffset": 570900,
      "componentType": 5125,
      "count": 56652,
      "type": "SCALAR"
    },
    {
      "bufferView": 2,
      "byteOffset": 976704,
      "componentType": 5126,
      "count": 15116,
      "max": [
        9.317651748657227,
        -0.24736689031124115,
        6.503798007965088
      ],
      "min": [
        -9.124334335327148,
        -22.663387298583984,
        -9.293846130371094
      ],
      "type": "VEC3"
    },
    {
      "bufferView": 2,
      "byteOffset": 1158096,
      "componentType": 5126,
      "count": 15116,
      "max": [
        0.9999990463256836,
        0.9999999403953552,
        0.9999991655349731
      ],
      "min": [
        -0.9999995231628418,
        -0.9999979734420776,
        -0.999995768070221
      ],
      "type": "VEC3"
    },
    {
      "bufferView": 1,
      "byteOffset": 325568,
      "componentType": 5126,
      "count": 15116,
      "max": [
        1.9994219541549683,
        1.920654058456421
      ],
      "min": [
        1.0002440214157104,
        1.0004609823226929
      ],
      "type": "VEC2"
    },
    {
      "bufferView": 0,
      "byteOffset": 797508,
      "componentType": 5125,
      "count": 75867,
      "type": "SCALAR"
    },
    {
      "bufferView": 2,
      "byteOffset": 1339488,
      "componentType": 5126,
      "count": 9903,
      "max": [
        9.276172637939453,
        -0.3303488790988922,
        6.426537036895752
      ],
      "min": [
        -8.965056419372559,
        -22.692644119262695,
        -9.387364387512207
      ],
      "type": "VEC3"
    },
    {
      "bufferView": 2,
      "byteOffset": 1458324,
      "componentType": 5126,
      "count": 9903,
      "max": [
        0.9999985098838806,
        0.9999994039535522,
        0.9999988675117493
      ],
      "min": [
        -0.9999984502792358,
        -0.9999958872795105,
        -0.9999992847442627
      ],
      "type": "VEC3"
    },
    {
      "bufferView": 1,
      "byteOffset": 446496,
      "componentType": 5126,
      "count": 9903,
      "max": [
        2.995850086212158,
        0.9987789988517761
      ],
      "min": [
        2.000243902206421,
        0.00037200000951997936
      ],
      "type": "VEC2"
    },
    {
      "bufferView": 0,
      "byteOffset": 1100976,
      "componentType": 5125,
      "count": 49503,
      "type": "SCALAR"
    }
  ],
  "asset": {
    "extras": {
      "author": "Azad Balabanian (https://sketchfab.com/azadbal)",
      "license": "CC-BY-4.0 (http://creativecommons.org/licenses/by/4.0/)",
      "source": "https://sketchfab.com/3d-models/elevator-in-berlin-realitiesio-7c759a68446c4bf3b109bfa9cea974ae",
      "title": "Elevator in Berlin - Realities.io"
    },
    "generator": "Sketchfab-12.68.0",
    "version": "2.0"
  },
  "bufferViews": [
    {
      "buffer": 0,
      "byteLength": 1298988,
      "name": "floatBufferViews",
      "target": 34963
    },
    {
      "buffer": 0,
      "byteLength": 525720,
      "byteOffset": 1298988,
      "byteStride": 8,
      "name": "floatBufferViews",
      "target": 34962
    },
    {
      "buffer": 0,
      "byteLength": 1577160,
      "byteOffset": 1824708,
      "byteStride": 12,
      "name": "floatBufferViews",
      "target": 34962
    }
  ],
  "buffers": [
    {
      "byteLength": 3401868,
      "uri": "scene.bin"
    }
  ],
  "extensionsUsed": [
    "KHR_materials_unlit"
  ],
  "images": [
    {
      "uri": "textures/ElevatorCLEAN2_Material_u1_v1_baseColor.jpeg"
    },
    {
      "uri": "textures/ElevatorCLEAN2_Material_u1_v2_baseColor.jpeg"
    },
    {
      "uri": "textures/ElevatorCLEAN2_Material_u2_v1_baseColor.jpeg"
    },
    {
      "uri": "textures/ElevatorCLEAN2_Material_u2_v2_baseColor.jpeg"
    },
    {
      "uri": "textures/ElevatorCLEAN2_Material_u3_v1_baseColor.jpeg"
    }
  ],
  "materials": [
    {
      "extensions": {
        "KHR_materials_unlit": {}
      },
      "name": "ElevatorCLEAN2_Material_u1_v1",
      "pbrMetallicRoughness": {
        "baseColorTexture": {
          "index": 0
        },
        "metallicFactor": 0.0
      }
    },
    {
      "extensions": {
        "KHR_materials_unlit": {}
      },
      "name": "ElevatorCLEAN2_Material_u1_v2",
      "pbrMetallicRoughness": {
        "baseColorTexture": {
          "index": 1
        },
        "metallicFactor": 0.0
      }
    },
    {
      "extensions": {
        "KHR_materials_unlit": {}
      },
      "name": "ElevatorCLEAN2_Material_u2_v1",
      "pbrMetallicRoughness": {
        "baseColorTexture": {
          "index": 2
        },
        "metallicFactor": 0.0
      }
    },
    {
      "extensions": {
        "KHR_materials_unlit": {}
      },
      "name": "ElevatorCLEAN2_Material_u2_v2",
      "pbrMetallicRoughness": {
        "baseColorTexture": {
          "index": 3
        },
        "metallicFactor": 0.0
      }
    },
    {
      "extensions": {
        "KHR_materials_unlit": {}
      },
      "name": "ElevatorCLEAN2_Material_u3_v1",
      "pbrMetallicRoughness": {
        "baseColorTexture": {
          "index": 4
        },
        "metallicFactor": 0.0
      }
    }
  ],
  "meshes": [
    {
      "name": "Object_0",
      "primitives": [
        {
          "attributes": {
            "NORMAL": 1,
            "POSITION": 0,
            "TEXCOORD_0": 2
          },
          "indices": 3,
          "material": 0,
          "mode": 4
        }
      ]
    },
    {
      "name": "Object_1",
      "primitives": [
        {
          "attributes": {
            "NORMAL": 5,
            "POSITION": 4,
            "TEXCOORD_0": 6
          },
          "indices": 7,
          "material": 1,
          "mode": 4
        }
      ]
    },
    {
      "name": "Object_2",
      "primitives": [
        {
          "attributes": {
            "NORMAL": 9,
            "POSITION": 8,
            "TEXCOORD_0": 10
          },
          "indices": 11,
          "material": 2,
          "mode": 4
        }
      ]
    },
    {
      "name": "Object_3",
      "primitives": [
        {
          "attributes": {
            "NORMAL": 13,
            "POSITION": 12,
            "TEXCOORD_0": 14
          },
          "indices": 15,
          "material": 3,
          "mode": 4
        }
      ]
    },
    {
      "name": "Object_4",
      "primitives": [
        {
          "attributes": {
            "NORMAL": 17,
            "POSITION": 16,
            "TEXCOORD_0": 18
          },
          "indices": 19,
          "material": 4,
          "mode": 4
        }
      ]
    }
  ],
  "nodes": [
    {
      "children": [
        1
      ],
      "matrix": [
        -1.0,
        0.0,
        0.0,
        0.0,
        0.0,
        -0.999984622001648,
        0.005542850121855514,
        0.0,
        0.0,
        0.005542850121855514,
        0.999984622001648,
        0.0,
        0.2202320098876953,
        -12.972177505493168,
        13.044280052185055,
        1.0
      ],
      "name": "Sketchfab_model"
    },
    {
      "children": [
        2,
        3,
        4,
        5,
        6
      ],
      "name": "ElevatorCLEAN2.obj.cleaner.materialmerger.gles"
    },
    {
      "mesh": 0,
      "name": "Object_2"
    },
    {
      "mesh": 1,
      "name": "Object_3"
    },
    {
      "mesh": 2,
      "name": "Object_4"
    },
    {
      "mesh": 3,
      "name": "Object_5"
    },
    {
      "mesh": 4,
      "name": "Object_6"
    }
  ],
  "samplers": [
    {
      "magFilter": 9729,
      "minFilter": 9987,
      "wrapS": 10497,
      "wrapT": 10497
    }
  ],
  "scene": 0,
  "scenes": [
    {
      "name": "Sketchfab_Scene",
      "nodes": [
        0
      ]
    }
  ],
  "textures": [
    {
      "sampler": 0,
      "source": 0
    },
    {
      "sampler": 0,
      "source": 1
    },
    {
      "sampler": 0,
      "source": 2
    },
    {
      "sampler": 0,
      "source": 3
    },
    {
      "sampler": 0,
      "source": 4
    }
  ]
}
